<svg width="19" height="18" viewBox="0 0 19 18" fill="none" xmlns="http://www.w3.org/2000/svg">
<mask id="path-1-inside-1_173_710" fill="white">
<path fill-rule="evenodd" clip-rule="evenodd" d="M13.2017 3.4082H6.51514V5.11926H3.17188V14.5918H16.5449V5.11926H13.2017V3.4082Z"/>
</mask>
<path d="M6.51514 3.4082V1.4082H4.51514V3.4082H6.51514ZM13.2017 3.4082H15.2017V1.4082H13.2017V3.4082ZM6.51514 5.11926V7.11926H8.51514V5.11926H6.51514ZM3.17188 5.11926V3.11926H1.17188V5.11926H3.17188ZM3.17188 14.5918H1.17188V16.5918H3.17188V14.5918ZM16.5449 14.5918V16.5918H18.5449V14.5918H16.5449ZM16.5449 5.11926H18.5449V3.11926H16.5449V5.11926ZM13.2017 5.11926H11.2017V7.11926H13.2017V5.11926ZM6.51514 5.4082H13.2017V1.4082H6.51514V5.4082ZM8.51514 5.11926V3.4082H4.51514V5.11926H8.51514ZM3.17188 7.11926H6.51514V3.11926H3.17188V7.11926ZM5.17188 14.5918V5.11926H1.17188V14.5918H5.17188ZM16.5449 12.5918H3.17188V16.5918H16.5449V12.5918ZM14.5449 5.11926V14.5918H18.5449V5.11926H14.5449ZM13.2017 7.11926H16.5449V3.11926H13.2017V7.11926ZM11.2017 3.4082V5.11926H15.2017V3.4082H11.2017Z" fill="black" mask="url(#path-1-inside-1_173_710)"/>
<circle cx="9.85921" cy="9.78109" r="1.37289" stroke="black" stroke-width="2"/>
</svg>
