<svg width="37" height="36" viewBox="0 0 37 36" fill="none" xmlns="http://www.w3.org/2000/svg">
<mask id="path-1-inside-1_173_708" fill="white">
<path fill-rule="evenodd" clip-rule="evenodd" d="M25.5439 6.81641H12.1709V10.2385H5.48438V29.1837H32.2305V10.2385H25.5439V6.81641Z"/>
</mask>
<path d="M12.1709 6.81641V4.81641H10.1709V6.81641H12.1709ZM25.5439 6.81641H27.5439V4.81641H25.5439V6.81641ZM12.1709 10.2385V12.2385H14.1709V10.2385H12.1709ZM5.48438 10.2385V8.23851H3.48438V10.2385H5.48438ZM5.48438 29.1837H3.48438V31.1837H5.48438V29.1837ZM32.2305 29.1837V31.1837H34.2305V29.1837H32.2305ZM32.2305 10.2385H34.2305V8.23851H32.2305V10.2385ZM25.5439 10.2385H23.5439V12.2385H25.5439V10.2385ZM12.1709 8.81641H25.5439V4.81641H12.1709V8.81641ZM14.1709 10.2385V6.81641H10.1709V10.2385H14.1709ZM5.48438 12.2385H12.1709V8.23851H5.48438V12.2385ZM7.48438 29.1837V10.2385H3.48438V29.1837H7.48438ZM32.2305 27.1837H5.48438V31.1837H32.2305V27.1837ZM30.2305 10.2385V29.1837H34.2305V10.2385H30.2305ZM25.5439 12.2385H32.2305V8.23851H25.5439V12.2385ZM23.5439 6.81641V10.2385H27.5439V6.81641H23.5439Z" fill="black" mask="url(#path-1-inside-1_173_708)"/>
<circle cx="18.8571" cy="19.5619" r="3.74577" stroke="black" stroke-width="2"/>
</svg>
