<svg width="25" height="24" viewBox="0 0 25 24" fill="none" xmlns="http://www.w3.org/2000/svg">
<mask id="path-1-inside-1_173_709" fill="white">
<path fill-rule="evenodd" clip-rule="evenodd" d="M17.3145 4.54419H8.39909V6.82559H3.94141V19.4557H21.7721V6.82559H17.3145V4.54419Z"/>
</mask>
<path d="M8.39909 4.54419V2.54419H6.39909V4.54419H8.39909ZM17.3145 4.54419H19.3145V2.54419H17.3145V4.54419ZM8.39909 6.82559V8.82559H10.3991V6.82559H8.39909ZM3.94141 6.82559V4.82559H1.94141V6.82559H3.94141ZM3.94141 19.4557H1.94141V21.4557H3.94141V19.4557ZM21.7721 19.4557V21.4557H23.7721V19.4557H21.7721ZM21.7721 6.82559H23.7721V4.82559H21.7721V6.82559ZM17.3145 6.82559H15.3145V8.82559H17.3145V6.82559ZM8.39909 6.54419H17.3145V2.54419H8.39909V6.54419ZM10.3991 6.82559V4.54419H6.39909V6.82559H10.3991ZM3.94141 8.82559H8.39909V4.82559H3.94141V8.82559ZM5.94141 19.4557V6.82559H1.94141V19.4557H5.94141ZM21.7721 17.4557H3.94141V21.4557H21.7721V17.4557ZM19.7721 6.82559V19.4557H23.7721V6.82559H19.7721ZM17.3145 8.82559H21.7721V4.82559H17.3145V8.82559ZM15.3145 4.54419V6.82559H19.3145V4.54419H15.3145Z" fill="black" mask="url(#path-1-inside-1_173_709)"/>
<circle cx="12.8572" cy="13.0413" r="2.16385" stroke="black" stroke-width="2"/>
</svg>
